<?xml version="1.0" standalone="no"?>
<!DOCTYPE svg PUBLIC "-//W3C//DTD SVG 20010904//EN"
 "http://www.w3.org/TR/2001/REC-SVG-20010904/DTD/svg10.dtd">
<svg version="1.0" xmlns="http://www.w3.org/2000/svg"
 width="495.000000pt" height="496.000000pt" viewBox="0 0 495.000000 496.000000"
 preserveAspectRatio="xMidYMid meet">

<g transform="translate(0.000000,496.000000) scale(0.100000,-0.100000)"
fill="#000000" stroke="none">
<path d="M2190 4936 c-292 -38 -536 -110 -795 -236 -495 -241 -887 -632 -1130
-1124 -119 -243 -191 -467 -232 -726 -26 -163 -26 -577 0 -740 41 -259 112
-481 232 -725 356 -725 1046 -1227 1855 -1350 148 -22 429 -30 580 -16 174 17
397 63 558 117 165 54 440 187 577 279 601 402 981 1002 1092 1725 25 162 24
519 -1 685 -106 700 -489 1313 -1066 1705 -291 197 -649 337 -1015 395 -138
22 -517 28 -655 11z m640 -71 c500 -78 947 -296 1309 -641 404 -384 654 -881
732 -1454 17 -122 17 -458 0 -580 -21 -154 -85 -439 -96 -428 -2 2 4 68 13
148 18 170 15 196 -33 216 -85 35 -126 -37 -140 -248 -10 -150 -16 -193 -25
-178 -4 8 -20 78 -34 155 -44 232 -70 298 -148 381 -132 140 -368 153 -509 27
-74 -67 -106 -122 -199 -344 -45 -107 -90 -210 -100 -230 l-19 -35 -168 -13
c-177 -13 -295 -31 -341 -53 -41 -20 -64 -73 -58 -132 6 -57 25 -90 69 -116
30 -19 52 -20 352 -20 186 0 335 4 357 10 59 17 101 75 199 280 l92 189 29
-15 c53 -27 105 -83 128 -136 20 -46 22 -64 17 -143 -7 -137 -50 -245 -216
-547 l-43 -78 136 0 c75 0 136 -4 136 -8 0 -14 -198 -202 -285 -272 -122 -97
-303 -212 -438 -278 -182 -89 -164 -94 -165 48 0 178 -27 267 -101 332 -21 20
-37 48 -52 100 -59 198 -157 289 -360 335 -109 25 -660 25 -769 0 -188 -43
-297 -144 -349 -323 -18 -63 -32 -88 -66 -124 -24 -25 -50 -60 -59 -78 -18
-35 -35 -182 -36 -299 0 -85 16 -84 -155 -3 -477 225 -871 618 -1111 1105
-123 251 -188 451 -231 710 -25 158 -25 555 0 710 45 266 116 489 228 715 153
308 358 567 623 788 338 281 806 484 1226 531 52 6 109 13 125 15 68 10 436
-4 535 -19z m309 -4263 c70 -35 76 -54 79 -243 l3 -169 -28 -11 c-57 -22 -269
-69 -377 -84 -163 -23 -381 -30 -536 -16 -132 12 -374 55 -476 86 l-52 16 -1
157 c-1 145 0 160 21 202 43 84 8 80 713 80 571 0 623 -1 654 -18z"/>
<path d="M3849 3131 c-324 -104 -346 -541 -33 -683 75 -34 208 -32 286 4 75
35 138 94 179 170 32 59 34 69 34 158 0 83 -4 102 -28 155 -80 171 -262 252
-438 196z"/>
<path d="M2380 2123 c-85 -24 -144 -59 -207 -125 -84 -90 -115 -170 -114 -298
1 -125 45 -224 138 -312 171 -159 426 -154 594 12 94 93 136 203 127 334 -20
272 -278 459 -538 389z"/>
<path d="M838 1513 c-6 -16 -11 -62 -12 -103 -1 -179 102 -341 295 -466 141
-92 418 -206 444 -184 13 11 79 140 73 144 -1 1 -37 10 -78 20 -296 72 -475
221 -641 533 -24 46 -50 83 -57 83 -7 0 -18 -12 -24 -27z"/>
<path d="M4036 1447 c-118 -222 -218 -331 -384 -415 -53 -27 -122 -57 -152
-67 -104 -33 -160 -56 -160 -66 0 -5 14 -39 32 -74 36 -75 38 -76 144 -40 155
52 352 167 455 267 111 107 159 212 159 350 0 65 -20 138 -37 138 -4 0 -30
-42 -57 -93z"/>
</g>
</svg>
